<mxfile host="app.diagrams.net" modified="2023-03-17T08:13:37.152Z" agent="5.0 (Windows)" etag="cb31hjNGzUcrJnPtpBYz" version="21.0.6" type="github">
  <diagram name="Страница 1" id="cJ13UYBrTb7tckUbYN6B">
    <mxGraphModel dx="2074" dy="1142" grid="1" gridSize="10" guides="1" tooltips="1" connect="1" arrows="1" fold="1" page="1" pageScale="1" pageWidth="827" pageHeight="1169" math="0" shadow="0">
      <root>
        <mxCell id="0" />
        <mxCell id="1" parent="0" />
        <mxCell id="kbwbjweKBY5nXNiYPTVW-4" value="" style="edgeStyle=orthogonalEdgeStyle;rounded=0;orthogonalLoop=1;jettySize=auto;html=1;" parent="1" source="kbwbjweKBY5nXNiYPTVW-1" target="kbwbjweKBY5nXNiYPTVW-3" edge="1">
          <mxGeometry relative="1" as="geometry" />
        </mxCell>
        <mxCell id="kbwbjweKBY5nXNiYPTVW-1" value="Start" style="ellipse;whiteSpace=wrap;html=1;" parent="1" vertex="1">
          <mxGeometry x="330" y="100" width="120" height="80" as="geometry" />
        </mxCell>
        <mxCell id="kbwbjweKBY5nXNiYPTVW-2" value="and" style="ellipse;whiteSpace=wrap;html=1;" parent="1" vertex="1">
          <mxGeometry x="660" y="320" width="120" height="80" as="geometry" />
        </mxCell>
        <mxCell id="kbwbjweKBY5nXNiYPTVW-7" value="" style="edgeStyle=orthogonalEdgeStyle;rounded=0;orthogonalLoop=1;jettySize=auto;html=1;" parent="1" source="kbwbjweKBY5nXNiYPTVW-3" target="kbwbjweKBY5nXNiYPTVW-5" edge="1">
          <mxGeometry relative="1" as="geometry" />
        </mxCell>
        <mxCell id="kbwbjweKBY5nXNiYPTVW-3" value="&lt;div&gt;arr[]&lt;/div&gt;&lt;div&gt;sum=0&lt;/div&gt;&lt;div&gt;i=0&lt;/div&gt;&lt;div&gt;arrLangth=4&lt;br&gt;&lt;/div&gt;" style="shape=parallelogram;perimeter=parallelogramPerimeter;whiteSpace=wrap;html=1;fixedSize=1;" parent="1" vertex="1">
          <mxGeometry x="295" y="220" width="190" height="60" as="geometry" />
        </mxCell>
        <mxCell id="kbwbjweKBY5nXNiYPTVW-8" value="" style="edgeStyle=orthogonalEdgeStyle;rounded=0;orthogonalLoop=1;jettySize=auto;html=1;" parent="1" source="kbwbjweKBY5nXNiYPTVW-5" target="kbwbjweKBY5nXNiYPTVW-6" edge="1">
          <mxGeometry relative="1" as="geometry" />
        </mxCell>
        <mxCell id="kbwbjweKBY5nXNiYPTVW-23" value="" style="edgeStyle=orthogonalEdgeStyle;rounded=0;orthogonalLoop=1;jettySize=auto;html=1;" parent="1" source="kbwbjweKBY5nXNiYPTVW-5" target="kbwbjweKBY5nXNiYPTVW-21" edge="1">
          <mxGeometry relative="1" as="geometry" />
        </mxCell>
        <mxCell id="kbwbjweKBY5nXNiYPTVW-5" value="i&amp;lt;arrLangth" style="rhombus;whiteSpace=wrap;html=1;" parent="1" vertex="1">
          <mxGeometry x="350" y="320" width="80" height="80" as="geometry" />
        </mxCell>
        <mxCell id="kbwbjweKBY5nXNiYPTVW-14" value="" style="edgeStyle=orthogonalEdgeStyle;rounded=0;orthogonalLoop=1;jettySize=auto;html=1;" parent="1" source="kbwbjweKBY5nXNiYPTVW-6" target="kbwbjweKBY5nXNiYPTVW-10" edge="1">
          <mxGeometry relative="1" as="geometry" />
        </mxCell>
        <mxCell id="kbwbjweKBY5nXNiYPTVW-15" value="" style="edgeStyle=orthogonalEdgeStyle;rounded=0;orthogonalLoop=1;jettySize=auto;html=1;" parent="1" source="kbwbjweKBY5nXNiYPTVW-6" target="kbwbjweKBY5nXNiYPTVW-11" edge="1">
          <mxGeometry relative="1" as="geometry" />
        </mxCell>
        <mxCell id="kbwbjweKBY5nXNiYPTVW-6" value="arr[i]%2==1" style="rhombus;whiteSpace=wrap;html=1;" parent="1" vertex="1">
          <mxGeometry x="350" y="460" width="80" height="80" as="geometry" />
        </mxCell>
        <mxCell id="kbwbjweKBY5nXNiYPTVW-9" value="No" style="text;html=1;strokeColor=none;fillColor=none;align=center;verticalAlign=middle;whiteSpace=wrap;rounded=0;" parent="1" vertex="1">
          <mxGeometry x="330" y="410" width="60" height="30" as="geometry" />
        </mxCell>
        <mxCell id="kbwbjweKBY5nXNiYPTVW-20" value="" style="edgeStyle=orthogonalEdgeStyle;rounded=0;orthogonalLoop=1;jettySize=auto;html=1;entryX=0;entryY=0.5;entryDx=0;entryDy=0;" parent="1" source="kbwbjweKBY5nXNiYPTVW-10" target="kbwbjweKBY5nXNiYPTVW-5" edge="1">
          <mxGeometry relative="1" as="geometry">
            <mxPoint x="240" y="390" as="targetPoint" />
            <Array as="points">
              <mxPoint x="240" y="360" />
            </Array>
          </mxGeometry>
        </mxCell>
        <mxCell id="kbwbjweKBY5nXNiYPTVW-10" value="i+=1" style="rounded=0;whiteSpace=wrap;html=1;" parent="1" vertex="1">
          <mxGeometry x="330" y="590" width="120" height="60" as="geometry" />
        </mxCell>
        <mxCell id="kbwbjweKBY5nXNiYPTVW-26" value="" style="edgeStyle=orthogonalEdgeStyle;rounded=0;orthogonalLoop=1;jettySize=auto;html=1;entryX=1;entryY=0.5;entryDx=0;entryDy=0;" parent="1" source="kbwbjweKBY5nXNiYPTVW-11" target="kbwbjweKBY5nXNiYPTVW-10" edge="1">
          <mxGeometry relative="1" as="geometry">
            <mxPoint x="550" y="610" as="targetPoint" />
            <Array as="points">
              <mxPoint x="550" y="620" />
            </Array>
          </mxGeometry>
        </mxCell>
        <mxCell id="kbwbjweKBY5nXNiYPTVW-11" value="&lt;div&gt;sum+=arr[i]&lt;/div&gt;&lt;div&gt;&lt;br&gt;&lt;/div&gt;" style="rounded=0;whiteSpace=wrap;html=1;" parent="1" vertex="1">
          <mxGeometry x="490" y="470" width="120" height="60" as="geometry" />
        </mxCell>
        <mxCell id="kbwbjweKBY5nXNiYPTVW-12" value="No" style="text;html=1;strokeColor=none;fillColor=none;align=center;verticalAlign=middle;whiteSpace=wrap;rounded=0;" parent="1" vertex="1">
          <mxGeometry x="340" y="550" width="60" height="30" as="geometry" />
        </mxCell>
        <mxCell id="kbwbjweKBY5nXNiYPTVW-17" value="Yes" style="text;html=1;strokeColor=none;fillColor=none;align=center;verticalAlign=middle;whiteSpace=wrap;rounded=0;" parent="1" vertex="1">
          <mxGeometry x="425" y="470" width="60" height="30" as="geometry" />
        </mxCell>
        <mxCell id="kbwbjweKBY5nXNiYPTVW-22" value="" style="edgeStyle=orthogonalEdgeStyle;rounded=0;orthogonalLoop=1;jettySize=auto;html=1;" parent="1" source="kbwbjweKBY5nXNiYPTVW-21" target="kbwbjweKBY5nXNiYPTVW-2" edge="1">
          <mxGeometry relative="1" as="geometry" />
        </mxCell>
        <mxCell id="kbwbjweKBY5nXNiYPTVW-21" value="sum" style="shape=document;whiteSpace=wrap;html=1;boundedLbl=1;" parent="1" vertex="1">
          <mxGeometry x="490" y="320" width="120" height="80" as="geometry" />
        </mxCell>
        <mxCell id="kbwbjweKBY5nXNiYPTVW-24" value="Yes" style="text;html=1;strokeColor=none;fillColor=none;align=center;verticalAlign=middle;whiteSpace=wrap;rounded=0;" parent="1" vertex="1">
          <mxGeometry x="425" y="330" width="60" height="30" as="geometry" />
        </mxCell>
      </root>
    </mxGraphModel>
  </diagram>
</mxfile>
